#!OML:ASF H:\BabyWalks\Project 1\Capture day 1\Session 1\baby.ASF
:FULLY-SPECIFIED
:DEGREES
811
root -28.7999 16.9817 -3.77822 -220.6 84.5492 -223.537
lowerback 17.7566 1.64975 -5.68216
upperback 5.58927 1.45946 -1.88301
thorax -4.01022 0.880168 0.905675
lowerneck 1.0619 -4.09281 5.0998
upperneck -16.7349 -4.80382 0.556886
head -5.33725 -2.53601 -0.44275
rclavicle -2.98177e-016 1.07344e-014
rhumerus -61.939 42.9728 -98.9763
rradius 82.8603
rwrist 24.571
rhand -10.731 13.3797
rfingers 7.12502
rthumb 15.2796 -16.0359
lclavicle -2.98177e-016 1.07344e-014
lhumerus -59.9708 -48.2529 98.7749
lradius 81.2965
lwrist -3.22994
lhand 11.2921 -6.72723
lfingers 7.12502
lthumb 36.3508 19.5023
rfemur -35.727 5.4647 6.10264
rtibia 29.5883
rfoot 4.67723 -6.89448
rtoes -0.896598
lfemur 8.78621 4.87412 -20.2025
ltibia 18.678
lfoot -32.0251 8.47489
ltoes -12.2196
812
root -28.88 16.9965 -3.79964 -222.283 84.9249 -225.512
lowerback 17.7698 1.71181 -5.74843
upperback 5.52845 1.51986 -1.86466
thorax -4.08744 0.909471 0.948151
lowerneck 1.09838 -4.05791 5.09723
upperneck -16.9223 -4.72302 0.703048
head -5.3969 -2.50491 -0.398834
rclavicle -3.10104e-014 3.69739e-014
rhumerus -61.6386 42.6126 -98.4979
rradius 82.9847
rwrist 24.5756
rhand -9.85286 12.6638
rfingers 7.12502
rthumb 16.1253 -16.6853
lclavicle -3.10104e-014 3.69739e-014
lhumerus -59.7111 -48.1045 98.4889
lradius 81.1244
lwrist -3.20472
lhand 11.2672 -6.63703
lfingers 7.12502
lthumb 36.3273 19.5984
rfemur -36.0411 5.40782 6.23692
rtibia 28.8215
rfoot 5.37255 -7.02981
rtoes 0.257969
lfemur 8.18869 5.51278 -20.1145
ltibia 18.8452
lfoot -32.1939 8.19623
ltoes -12.0993
813
root -28.9564 17.0008 -3.82015 -224.429 85.3163 -227.954
lowerback 17.7588 1.76666 -5.7926
upperback 5.4508 1.57398 -1.84594
thorax -4.16953 0.935396 0.980189
lowerneck 1.13544 -4.01035 5.07667
upperneck -17.0876 -4.6289 0.835426
head -5.44932 -2.46562 -0.357188
rclavicle -4.17448e-015 3.57812e-015
rhumerus -61.3834 42.262 -98.0479
rradius 83.1129
rwrist 24.5443
rhand -8.94632 11.8997
rfingers 7.12502
rthumb 16.9981 -17.3766
lclavicle -4.17448e-015 3.57812e-015
lhumerus -59.4398 -47.9153 98.1737
lradius 80.9417
lwrist -3.13428
lhand 11.2462 -6.52309
lfingers 7.12502
lthumb 36.3074 19.7173
rfemur -36.4046 5.14935 6.49914
rtibia 28.1889
rfoot 5.98173 -7.03932
rtoes 1.36516
lfemur 7.56962 6.16441 -20.0268
ltibia 19.1063
lfoot -32.2976 7.96056
ltoes -12.2251
814
root -29.0284 17.0164 -3.84027 -227.198 85.716 -231.014
lowerback 17.7329 1.81347 -5.80828
upperback 5.35646 1.62121 -1.83311
thorax -4.26067 0.95788 0.991466
lowerneck 1.16133 -3.9495 5.034
upperneck -17.2112 -4.52165 0.959442
head -5.48621 -2.41817 -0.315878
rclavicle -7.35503e-015 1.59028e-014
rhumerus -61.1739 41.9148 -97.6311
rradius 83.2439
rwrist 24.47
rhand -7.96544 11.1171
rfingers 7.12502
rthumb 17.9421 -18.0753
lclavicle -7.35503e-015 1.59028e-014
lhumerus -59.1622 -47.6876 97.8185
lradius 80.756
lwrist -3.00929
lhand 11.255 -6.35517
lfingers 7.12502
lthumb 36.3157 19.8832
rfemur -36.7446 4.67866 6.91733
rtibia 27.7063
rfoot 6.39644 -6.85419
rtoes 2.25054
lfemur 6.93185 6.81905 -19.9488
ltibia 19.4463
lfoot -32.3254 7.76812
ltoes -12.5527
815
root -29.0958 17.0312 -3.85891 -230.701 86.1126 -234.797
lowerback 17.6571 1.86271 -5.8198
upperback 5.27018 1.67701 -1.80786
thorax -4.31768 0.983576 1.01332
lowerneck 1.16792 -3.88311 4.9934
upperneck -17.3033 -4.41562 1.04116
head -5.51108 -2.3688 -0.288696
rclavicle 1.98785e-015 1.43125e-014
rhumerus -60.9706 41.569 -97.1828
rradius 83.3877
rwrist 24.3279
rhand -6.96014 10.2857
rfingers 7.12502
rthumb 18.9092 -18.8152
lclavicle 1.98785e-015 1.43125e-014
lhumerus -58.834 -47.442 97.4186
lradius 80.5689
lwrist -2.83294
lhand 11.2795 -6.12251
lfingers 7.12502
lthumb 36.3389 20.11
rfemur -37.0904 4.00898 7.48401
rtibia 27.4453
rfoot 6.55415 -6.42677
rtoes 2.79814
lfemur 6.28362 7.4448 -19.8785
ltibia 19.8667
lfoot -32.2943 7.65929
ltoes -13.0958
816
root -29.1586 17.0447 -3.87572 -235.048 86.4963 -239.398
lowerback 17.5814 1.89968 -5.79056
upperback 5.17291 1.72227 -1.79128
thorax -4.38482 1.00422 1.0051
lowerneck 1.13838 -3.80428 4.94173
upperneck -17.322 -4.30077 1.10876
head -5.50669 -2.31334 -0.265947
rclavicle 2.48481e-014 -2.3059e-014
rhumerus -60.8039 41.2247 -96.7536
rradius 83.5497
rwrist 24.1071
rhand -5.90992 9.42325
rfingers 7.12502
rthumb 19.919 -19.5759
lclavicle 2.48481e-014 -2.3059e-014
lhumerus -58.4972 -47.1637 96.9619
lradius 80.3906
lwrist -2.62588
lhand 11.2925 -5.86494
lfingers 7.12502
lthumb 36.3512 20.3645
rfemur -37.3982 3.1948 8.1745
rtibia 27.3802
rfoot 6.44426 -5.75006
rtoes 2.97153
lfemur 5.68397 7.95924 -19.8255
ltibia 20.2592
lfoot -32.1593 7.68146
ltoes -13.8022
817
root -29.2167 17.0571 -3.89066 -240.54 86.861 -245.106
lowerback 17.504 1.92928 -5.72746
upperback 5.07505 1.76375 -1.77767
thorax -4.45061 1.02289 0.975543
lowerneck 1.07537 -3.71432 4.88546
upperneck -17.2742 -4.17903 1.15623
head -5.47601 -2.25273 -0.250251
rclavicle 1.05356e-014 -1.55052e-014
rhumerus -60.654 40.8885 -96.3183
rradius 83.7354
rwrist 23.7985
rhand -4.85636 8.51512
rfingers 7.12502
rthumb 20.9314 -20.3755
lclavicle 1.05356e-014 -1.55052e-014
lhumerus -58.1429 -46.852 96.4464
lradius 80.2257
lwrist -2.4091
lhand 11.3308 -5.54281
lfingers 7.12502
lthumb 36.3874 20.6776
rfemur -37.6776 2.30812 8.9494
rtibia 27.5972
rfoot 6.00683 -4.8205
rtoes 2.77799
lfemur 5.11437 8.36055 -19.7821
ltibia 20.6919
lfoot -31.9957 7.82003
ltoes -14.5675
